<?xml version="1.0" standalone="no"?>
<!DOCTYPE svg PUBLIC "-//W3C//DTD SVG 20010904//EN"
 "http://www.w3.org/TR/2001/REC-SVG-20010904/DTD/svg10.dtd">
<svg version="1.0" xmlns="http://www.w3.org/2000/svg"
 width="415.000000pt" height="415.000000pt" viewBox="0 0 415.000000 415.000000"
 preserveAspectRatio="xMidYMid meet">
<metadata>
Created by potrace 1.14, written by Peter Selinger 2001-2017
</metadata>
<g transform="translate(0.000000,415.000000) scale(0.100000,-0.100000)"
fill="#000000" stroke="none">
<path d="M2507 3500 c-6 -26 -11 -30 -39 -30 l-33 -1 24 -19 c18 -16 22 -26
17 -50 -6 -34 -4 -35 24 -18 16 10 24 10 40 0 28 -17 30 -16 24 18 -5 24 -1
34 17 50 l24 19 -33 1 c-28 0 -33 4 -38 30 -4 17 -10 30 -14 30 -4 0 -10 -13
-13 -30z"/>
<path d="M1355 3380 c-6 -28 -10 -30 -53 -30 l-47 0 37 -26 c34 -24 36 -28 26
-55 -13 -39 -7 -43 30 -22 29 17 31 17 51 -1 27 -24 33 -18 22 21 -8 29 -6 33
27 57 l37 26 -47 0 c-43 0 -47 2 -53 30 -4 17 -10 30 -15 30 -5 0 -11 -13 -15
-30z"/>
<path d="M1817 3170 c-6 -26 -11 -30 -39 -30 l-33 -1 24 -19 c18 -16 22 -26
17 -50 -6 -34 -4 -35 24 -18 16 10 24 10 40 0 28 -17 30 -16 24 18 -5 24 -1
34 17 50 l24 19 -33 1 c-28 0 -33 4 -38 30 -4 17 -10 30 -14 30 -4 0 -10 -13
-13 -30z"/>
<path d="M3447 3160 c-6 -26 -11 -30 -39 -30 l-33 -1 24 -19 c18 -16 22 -26
17 -50 -6 -34 -4 -35 24 -18 16 10 24 10 40 0 28 -17 30 -16 24 18 -5 24 -1
34 17 50 l24 19 -33 1 c-28 0 -33 4 -38 30 -4 17 -10 30 -14 30 -4 0 -10 -13
-13 -30z"/>
<path d="M597 3120 c-6 -26 -11 -30 -39 -30 l-33 -1 24 -19 c18 -16 22 -26 17
-50 -6 -34 -4 -35 24 -18 16 10 24 10 40 0 28 -17 30 -16 24 18 -5 24 -1 34
17 50 l24 19 -33 1 c-28 0 -33 4 -38 30 -4 17 -10 30 -14 30 -4 0 -10 -13 -13
-30z"/>
<path d="M2817 3040 c-6 -26 -11 -30 -39 -30 l-33 -1 24 -19 c18 -16 22 -26
17 -50 -6 -34 -4 -35 24 -18 16 10 24 10 40 0 28 -17 30 -16 24 18 -5 24 -1
34 17 50 l24 19 -33 1 c-28 0 -33 4 -38 30 -4 17 -10 30 -14 30 -4 0 -10 -13
-13 -30z"/>
<path d="M1630 2902 c-82 -28 -158 -69 -226 -123 -51 -41 -79 -70 -164 -172
-4 -4 -35 3 -71 17 -181 67 -352 74 -471 19 -124 -58 -223 -189 -315 -413
l-48 -117 -64 -34 c-122 -65 -181 -141 -165 -213 27 -128 198 -307 359 -374
136 -58 229 -56 557 9 l158 31 97 -65 c336 -224 606 -273 942 -171 100 30 277
106 422 181 l106 54 107 -36 c241 -80 464 -116 603 -95 180 27 269 74 455 243
117 106 124 119 133 247 18 290 -65 388 -296 350 -126 -22 -118 -25 -139 55
-91 352 -283 535 -562 535 -149 0 -389 -84 -544 -191 -24 -16 -46 -29 -51 -29
-4 0 -37 25 -73 56 -120 103 -242 174 -375 222 -97 34 -292 41 -375 14z m304
-47 c124 -32 276 -115 390 -212 37 -32 81 -68 96 -81 l28 -23 86 56 c149 98
294 156 442 177 226 32 402 -66 509 -285 39 -80 57 -140 101 -323 2 -8 26 -6
81 8 107 26 220 29 256 5 55 -36 62 -58 65 -221 l4 -149 -84 -80 c-154 -149
-258 -212 -397 -243 -160 -36 -422 1 -679 95 l-83 30 -192 -94 c-295 -145
-466 -195 -662 -195 -191 0 -376 67 -595 215 l-110 74 -177 -35 c-388 -77
-500 -63 -683 83 -113 90 -170 169 -170 238 0 46 53 98 146 143 l69 34 34 86
c96 245 199 390 319 445 40 19 64 22 162 21 108 0 122 -3 240 -42 l125 -43 19
28 c10 15 60 69 110 118 138 136 241 183 406 184 47 1 112 -6 144 -14z"/>
<path d="M1037 2840 c-6 -26 -11 -30 -39 -30 l-33 -1 24 -19 c18 -16 22 -26
17 -50 -6 -34 -4 -35 24 -18 16 10 24 10 40 0 28 -17 30 -16 24 18 -5 24 -1
34 17 50 l24 19 -33 1 c-28 0 -33 4 -38 30 -4 17 -10 30 -14 30 -4 0 -10 -13
-13 -30z"/>
<path d="M3797 2630 c-6 -26 -11 -30 -39 -30 l-33 -1 24 -19 c18 -16 22 -26
17 -50 -6 -34 -4 -35 24 -18 16 10 24 10 40 0 28 -17 30 -16 24 18 -5 24 -1
34 17 50 l24 19 -33 1 c-28 0 -33 4 -38 30 -4 17 -10 30 -14 30 -4 0 -10 -13
-13 -30z"/>
<path d="M227 2500 c-6 -26 -11 -30 -39 -30 l-33 -1 24 -19 c18 -16 22 -26 17
-50 -6 -34 -4 -35 24 -18 16 10 24 10 40 0 28 -17 30 -16 24 18 -5 24 -1 34
17 50 l24 19 -33 1 c-28 0 -33 4 -38 30 -4 17 -10 30 -14 30 -4 0 -10 -13 -13
-30z"/>
</g>
</svg>
