<svg xmlns="http://www.w3.org/2000/svg" version="1.1" xmlns:xlink="http://www.w3.org/1999/xlink" xmlns:svgjs="http://svgjs.com/svgjs" width="830" height="830"><svg xmlns="http://www.w3.org/2000/svg" width="830" height="830" viewBox="0 0 830 830" version="1.1"><path d="M 0 415.001 L 0 830.002 415.250 829.751 L 830.500 829.500 830.751 414.750 L 831.002 0 415.501 0 L 0 0 0 415.001 M 0.495 415.500 C 0.495 643.750, 0.610 737.274, 0.750 623.332 C 0.890 509.389, 0.890 322.639, 0.750 208.332 C 0.610 94.024, 0.495 187.250, 0.495 415.500 M 502.598 122.841 C 502.277 123.361, 501.398 126.198, 500.646 129.144 L 499.280 134.500 493.140 134.798 C 485.910 135.148, 485.487 136.142, 490.502 141.002 C 494.357 144.738, 493.886 146.668, 489.524 145.009 C 487.983 144.423, 486.549 144.117, 486.338 144.329 C 485.373 145.293, 487.517 148.216, 490.211 149.609 C 492.601 150.845, 493.065 151.605, 492.589 153.503 C 492.263 154.800, 492.457 157.072, 493.020 158.552 C 493.756 160.489, 493.711 161.644, 492.857 162.672 C 491.928 163.791, 492.009 164.437, 493.229 165.657 C 494.638 167.067, 494.983 167.017, 496.867 165.133 C 500.135 161.865, 503.864 161.377, 508.050 163.670 C 511.723 165.682, 516.875 165.225, 515.505 163.008 C 515.162 162.454, 515.385 162, 516 162 C 516.615 162, 516.784 161.460, 516.377 160.800 C 514.345 157.514, 515.480 152.520, 519.076 148.924 C 521.191 146.809, 521.590 145, 519.941 145 C 519.359 145, 519.160 145.450, 519.500 146 C 520.393 147.445, 518.437 147.232, 517.207 145.750 C 515.633 143.853, 515.958 142.811, 519.311 139 L 522.389 135.500 515.717 135.205 L 509.045 134.910 507.239 128.777 C 505.512 122.914, 503.860 120.800, 502.598 122.841 M 273.275 146.176 C 272.675 146.904, 271.345 149.975, 270.320 153 C 267.619 160.970, 267.584 161, 260.941 161 C 254.403 161, 253.380 162.224, 257.102 165.593 C 259.208 167.498, 262.028 172.197, 261.968 173.700 C 261.951 174.140, 261.379 173.825, 260.698 173 C 258.490 170.324, 254.874 168.726, 253.695 169.905 C 252.467 171.133, 256.108 175.582, 259.127 176.540 C 260.603 177.009, 260.901 178.071, 260.743 182.307 C 260.636 185.163, 260.924 188.287, 261.382 189.250 C 261.993 190.536, 261.788 191, 260.607 191 C 258.186 191, 258.689 192.348, 261.616 193.707 C 264.077 194.849, 264.191 194.782, 263.747 192.457 C 263.489 191.106, 263.691 190, 264.198 190 C 264.704 190, 264.827 189.438, 264.472 188.750 C 264.117 188.063, 264.731 188.613, 265.837 189.974 C 267.753 192.332, 267.936 192.368, 269.752 190.724 C 272.228 188.484, 275.533 188.536, 278.846 190.869 C 282.401 193.372, 286 194.448, 286 193.008 C 286 192.389, 286.563 192.200, 287.250 192.588 C 288.234 193.143, 288.241 193.014, 287.285 191.982 C 286.325 190.946, 286.390 190.435, 287.594 189.555 C 288.809 188.667, 288.903 187.875, 288.059 185.655 C 286.208 180.786, 286.725 177.446, 289.528 176.169 C 290.919 175.536, 292.317 174.338, 292.635 173.509 C 292.953 172.679, 293.841 172, 294.607 172 C 295.373 172, 296 171.625, 296 171.167 C 296 169.556, 294.719 169.080, 292.941 170.032 C 291.071 171.033, 287.167 170.182, 288.714 169.111 C 290.463 167.900, 293.927 162.260, 293.304 161.637 C 292.953 161.287, 290.154 160.993, 287.083 160.985 C 284.012 160.976, 280.962 160.627, 280.305 160.209 C 279.647 159.791, 278.621 157.269, 278.023 154.604 C 276.473 147.685, 274.670 144.485, 273.275 146.176 M 364.176 189.750 C 363.684 190.713, 362.991 193.032, 362.635 194.905 C 361.722 199.708, 360.307 201, 355.959 201 C 349.112 201, 348.598 201.688, 351.994 206.306 C 353.647 208.555, 355 210.713, 355 211.102 C 355 211.491, 353.087 211.581, 350.750 211.302 L 346.500 210.794 349.346 213.346 C 350.911 214.749, 352.622 216.041, 353.149 216.216 C 353.676 216.392, 354.147 219.399, 354.197 222.899 C 354.272 228.213, 354.593 229.342, 356.143 229.748 C 357.165 230.015, 358 230.701, 358 231.272 C 358 231.843, 358.874 231.519, 359.941 230.553 C 361.511 229.133, 362.852 228.929, 366.941 229.492 C 369.724 229.875, 372 230.500, 372 230.881 C 372 231.262, 372.900 231.642, 374 231.725 C 375.100 231.808, 376 231.406, 376 230.831 C 376 230.256, 376.694 230.052, 377.542 230.378 C 378.803 230.862, 378.976 230.379, 378.489 227.735 C 378.161 225.956, 377.889 223.600, 377.885 222.500 C 377.874 219.854, 379.366 213.867, 380 214.013 C 381.221 214.296, 384 212.684, 384 211.693 C 384 210.962, 383.603 210.997, 382.800 211.800 C 381.144 213.456, 379.668 213.307, 380.342 211.551 C 380.714 210.582, 380.418 210.286, 379.449 210.658 C 377.253 211.501, 377.710 209.649, 380.499 206.406 C 381.873 204.807, 382.850 203.050, 382.671 202.500 C 382.491 201.950, 379.711 201.275, 376.493 201 L 370.641 200.500 369.512 195.464 C 367.817 187.904, 366.073 186.037, 364.176 189.750 M 690.144 192.169 C 689.666 193.451, 688.653 196.300, 687.893 198.500 C 687.133 200.700, 686.136 202.773, 685.678 203.107 C 685.221 203.440, 682.769 203.325, 680.229 202.850 C 673.415 201.577, 672.723 203.124, 677.796 208.292 C 680.108 210.648, 682 212.896, 682 213.288 C 682 214.383, 677.200 214.132, 676.500 213 C 676.160 212.450, 675.248 212, 674.472 212 C 672.137 212, 673.917 214.753, 677.691 216.980 C 680.597 218.695, 681.099 219.470, 680.597 221.469 C 680.264 222.798, 680.509 225.023, 681.142 226.413 C 682.033 228.368, 682.006 229.287, 681.025 230.470 C 680.015 231.687, 680.008 232.305, 680.991 233.489 C 682.611 235.441, 684 234.496, 684 231.441 C 684 228.728, 685.733 228.142, 686.655 230.543 C 687.187 231.930, 687.423 231.927, 688.979 230.519 C 690.877 228.802, 692.887 229.209, 697.180 232.181 C 698.884 233.361, 700.092 233.660, 700.499 233.002 C 700.851 232.433, 701.670 232.277, 702.319 232.656 C 702.969 233.034, 702.625 232.347, 701.556 231.129 C 699.964 229.315, 699.911 229.029, 701.264 229.548 C 703.255 230.312, 704.558 226.360, 703.589 222.500 C 703.136 220.693, 703.364 220, 704.414 220 C 706.371 220, 707.450 216.248, 705.997 214.496 C 705.354 213.721, 705.118 212.618, 705.473 212.044 C 705.828 211.470, 705.553 211, 704.863 211 C 704.172 211, 705.128 209.432, 706.985 207.515 C 708.843 205.598, 710.020 203.686, 709.599 203.266 C 709.179 202.846, 706.200 202.654, 702.980 202.840 L 697.124 203.177 695.278 196.911 C 693.279 190.122, 691.514 188.492, 690.144 192.169 M 119.548 203.296 C 118.146 206.465, 117 209.559, 117 210.173 C 117 210.942, 114.980 211.101, 110.500 210.682 C 102.649 209.949, 102.248 210.883, 108 216.500 C 110.200 218.648, 112 220.821, 112 221.328 C 112 222.251, 108.141 221.775, 104.634 220.418 C 102.967 219.774, 102.895 219.936, 103.961 221.927 C 104.618 223.154, 106.494 224.625, 108.131 225.196 C 110.699 226.091, 111.026 226.605, 110.513 228.943 C 110.185 230.433, 110.396 232.910, 110.980 234.448 C 111.760 236.499, 111.727 237.624, 110.857 238.672 C 109.925 239.795, 110.028 240.456, 111.336 241.764 C 112.394 242.823, 113 242.986, 113 242.214 C 113 241.546, 113.468 241, 114.040 241 C 114.613 241, 116.327 240.079, 117.850 238.952 C 120.170 237.237, 121.084 237.081, 123.478 237.992 C 125.051 238.590, 126.836 239.760, 127.445 240.594 C 130.027 244.125, 133.970 238.743, 133.406 232.459 C 133.149 229.599, 133.576 228.354, 135.287 226.965 L 137.500 225.170 135.076 222.585 C 132.456 219.792, 133.290 219.149, 136.441 221.532 C 138.903 223.394, 140 223.394, 140 221.531 C 140 220.648, 139.412 220.288, 138.526 220.629 C 137.715 220.940, 136.391 220.534, 135.585 219.728 C 134.296 218.439, 134.475 217.919, 137.059 215.443 C 141.727 210.971, 141.011 209.981, 133.610 210.672 L 127.220 211.269 125.619 205.884 C 122.979 197.004, 122.433 196.772, 119.548 203.296 M 564.709 213.662 C 564.419 214.131, 563.865 216.312, 563.479 218.508 C 563.092 220.703, 562.102 223.571, 561.279 224.881 C 559.894 227.084, 559.341 227.216, 553.891 226.646 C 549.956 226.235, 548 226.390, 548 227.112 C 548 227.707, 549.800 230.238, 552 232.737 C 555.514 236.729, 556.829 239, 555.626 239 C 555.420 239, 553.395 238.345, 551.126 237.544 C 545.874 235.691, 545.841 236.967, 551.052 240.416 C 553.850 242.267, 554.950 243.624, 554.605 244.799 C 554.331 245.734, 553.987 248.711, 553.842 251.413 C 553.622 255.507, 553.904 256.453, 555.539 257.093 C 558.659 258.313, 560 258.117, 560 256.442 C 560 255.174, 561.094 254.942, 565.901 255.192 C 569.147 255.362, 571.615 255.806, 571.385 256.181 C 571.155 256.555, 571.475 257.176, 572.095 257.559 C 572.716 257.942, 573.616 257.636, 574.096 256.878 C 574.729 255.880, 574.974 255.845, 574.985 256.750 C 574.993 257.438, 575.436 258, 575.969 258 C 576.501 258, 576.648 257.247, 576.295 256.326 C 575.799 255.034, 576.054 254.807, 577.415 255.329 C 578.984 255.931, 579.104 255.541, 578.515 251.753 C 578.152 249.414, 577.639 246.738, 577.377 245.806 C 577.071 244.718, 577.903 243.473, 579.700 242.329 C 584.772 239.100, 585.288 237.245, 581.045 237.497 C 579.419 237.594, 577.507 237.304, 576.795 236.852 C 575.768 236.200, 575.793 236.027, 576.917 236.015 C 577.696 236.007, 578.066 235.733, 577.739 235.406 C 577.412 235.079, 578.687 233.457, 580.572 231.802 C 585.742 227.263, 585.127 226.247, 577.287 226.383 L 570.575 226.500 569.365 221.113 C 568.180 215.841, 565.758 211.964, 564.709 213.662 M 338.393 246.088 C 323.892 248.514, 306.522 255.795, 291.563 265.718 C 281.545 272.364, 261.163 291.498, 250.865 303.925 L 246.370 309.350 235.435 305.272 C 217.607 298.624, 206.493 295.741, 192.026 294.012 C 147.685 288.715, 120.122 303.607, 93.957 347 C 87.278 358.076, 81.448 370.449, 72.046 393.500 L 66.336 407.500 55.554 413.243 C 37.845 422.677, 27.795 430.835, 23.298 439.426 C 20.578 444.622, 18.310 458.848, 19.184 465.235 C 20.144 472.254, 25.221 482.625, 31.694 490.790 C 34.337 494.124, 37.734 498.432, 39.243 500.364 C 42.673 504.756, 59.780 518.826, 70.896 526.399 C 90.494 539.750, 105.690 544.873, 127.500 545.481 C 146.874 546.021, 165.636 543.598, 209.500 534.893 C 220.500 532.710, 230.912 530.870, 232.637 530.804 C 236.192 530.668, 237.151 531.206, 254.743 543.192 C 289.171 566.650, 317.928 579.225, 350.500 585.066 C 360.993 586.948, 364.949 587.153, 382 586.703 C 409.499 585.977, 427.479 582.609, 455.502 572.935 C 475.198 566.135, 500.487 555.096, 526.866 541.783 C 538.617 535.852, 549.142 531, 550.256 531 C 551.369 531, 558.180 533.053, 565.390 535.562 C 597.245 546.647, 620.740 552.300, 650.832 556.121 C 670.536 558.624, 699.328 555.995, 719.500 549.853 C 726.106 547.842, 748.819 536.849, 749.968 535.106 C 750.261 534.662, 751.625 533.711, 753 532.993 C 761.870 528.357, 804.444 489.904, 807.730 483.560 C 809.467 480.208, 809.996 470.983, 810.201 440.500 C 810.346 418.993, 808.855 410.063, 803.277 399.030 C 799 390.572, 793.045 385.251, 784.500 382.254 C 776.285 379.372, 754.785 379.867, 739.090 383.299 C 732.264 384.791, 726.592 385.897, 726.485 385.756 C 726.378 385.615, 725.278 381.225, 724.041 376 C 710.553 319.039, 682.849 281.491, 644.783 268.583 C 633.677 264.817, 622.997 263.664, 605.043 264.292 C 593.492 264.696, 586.788 265.475, 578.940 267.323 C 552.467 273.557, 521.260 287.658, 497.276 304.224 L 490.051 309.214 482.276 301.995 C 465.474 286.396, 440.086 268.897, 421.291 259.961 C 409.888 254.539, 394.595 249.363, 382.991 246.998 C 372.487 244.858, 348.656 244.371, 338.393 246.088 M 208.709 254.697 C 208.449 255.139, 207.942 256.868, 207.584 258.540 C 206.672 262.801, 203.303 268.035, 201.777 267.562 C 201.075 267.345, 198.588 266.899, 196.250 266.572 C 190.902 265.823, 190.673 267.321, 195.428 271.931 C 197.314 273.758, 198.797 276.044, 198.724 277.010 C 198.603 278.616, 198.258 278.650, 194.718 277.401 C 190.012 275.740, 189.901 277.591, 194.560 280.056 C 197.954 281.852, 198.518 283.280, 198.919 291.083 C 198.963 291.954, 199.563 292.692, 200.250 292.723 C 205.524 292.961, 216.028 294.330, 218.434 295.093 C 222.185 296.283, 222.865 295.202, 221.991 289.439 C 221.395 285.513, 221.617 284.656, 223.792 282.481 C 225.156 281.116, 226.613 280, 227.029 280 C 227.446 280, 228.045 279.325, 228.362 278.500 C 228.712 277.586, 228.363 277, 227.469 277 C 226.661 277, 226 277.623, 226 278.383 C 226 279.144, 225.059 280.013, 223.908 280.314 C 221.861 280.849, 221.856 280.815, 223.658 278.759 C 224.671 277.602, 225.029 276.929, 224.452 277.262 C 223.876 277.595, 222.753 277.465, 221.956 276.973 C 220.794 276.255, 221.347 275.222, 224.754 271.751 C 227.089 269.371, 229 267.101, 229 266.705 C 229 266.310, 225.907 266.274, 222.126 266.625 L 215.252 267.264 213.371 260.963 C 211.630 255.131, 209.859 252.751, 208.709 254.697 M 759.626 297.533 C 759.282 298.430, 758.993 300.589, 758.985 302.332 C 758.960 307.350, 757.677 308.499, 752.073 308.512 C 744.571 308.531, 743.919 309.965, 748.861 315.580 C 752.888 320.155, 753.845 322, 752.191 322 C 751.746 322, 750.509 321.339, 749.441 320.532 C 747.474 319.044, 744 318.471, 744 319.635 C 744 320.601, 748.970 325, 750.060 325 C 750.636 325, 750.752 327.261, 750.351 330.667 C 749.761 335.687, 749.875 336.262, 751.343 335.699 C 752.558 335.232, 753 335.617, 753 337.138 C 753 338.573, 752.536 339.036, 751.500 338.638 C 750.675 338.322, 750 338.499, 750 339.031 C 750 339.564, 750.413 340, 750.918 340 C 751.423 340, 752.489 340.250, 753.287 340.557 C 754.205 340.909, 754.944 340.322, 755.301 338.956 C 755.612 337.769, 756.315 337.076, 756.864 337.416 C 757.413 337.755, 758.103 337.642, 758.398 337.165 C 758.879 336.386, 760.340 336.327, 766.309 336.843 C 767.304 336.930, 767.854 337.427, 767.531 337.950 C 767.208 338.472, 767.827 339.372, 768.906 339.950 C 771.730 341.461, 772.302 341.262, 771.704 338.976 C 771.314 337.486, 771.613 337.025, 772.837 337.226 C 774.017 337.420, 774.392 336.919, 774.128 335.500 C 773.182 330.411, 773.455 325.368, 774.762 323.822 C 776.278 322.027, 775.623 318, 773.814 318 C 773.236 318, 774.173 316.558, 775.896 314.795 C 777.620 313.032, 778.875 311.120, 778.686 310.545 C 778.496 309.970, 775.639 309.368, 772.336 309.207 L 766.331 308.913 764.915 302.709 C 763.488 296.453, 760.981 294, 759.626 297.533 M 629.667 315.667 C 629.300 316.033, 629 317.126, 629 318.095 C 629 319.858, 632.141 321.322, 644.794 325.459 C 652.100 327.848, 658.617 331.649, 660.860 334.829 C 663.751 338.929, 667.297 346.573, 671.015 356.718 C 674.397 365.950, 676.273 368.194, 678.598 365.787 C 679.591 364.758, 679.377 363.296, 677.531 358.500 C 676.260 355.200, 673.761 348.675, 671.978 344 C 666.687 330.132, 661.486 325.185, 646.500 319.766 C 633.290 314.989, 630.921 314.413, 629.667 315.667 M 46.616 323.138 C 45.727 324.407, 45 326.441, 45 327.657 C 45 328.874, 44.537 331.088, 43.971 332.577 C 42.962 335.231, 42.815 335.272, 36.471 334.680 C 32.400 334.299, 30 334.448, 30 335.080 C 30 335.633, 32.035 338.261, 34.522 340.920 C 38.604 345.284, 38.847 345.807, 37.022 346.284 C 35.910 346.575, 35 346.357, 35 345.799 C 35 345.242, 34.339 345.040, 33.532 345.349 C 32.725 345.659, 31.798 345.482, 31.473 344.956 C 31.148 344.430, 30.459 344, 29.941 344 C 27.936 344, 29.165 345.702, 32.850 348.031 L 36.700 350.463 36.311 356.982 C 36.018 361.900, 36.316 363.991, 37.523 365.500 C 39.115 367.489, 39.132 367.489, 40.584 365.529 C 41.387 364.444, 41.823 362.982, 41.553 362.279 C 40.974 360.768, 42.601 360.545, 43.507 362.011 C 43.850 362.567, 45.339 362.985, 46.816 362.939 C 49.918 362.843, 52.019 363.255, 53.660 364.281 C 55.343 365.334, 57.962 364.065, 57.358 362.490 C 56.993 361.541, 57.452 361.305, 58.919 361.689 C 60.794 362.179, 60.939 361.903, 60.412 358.866 C 60.090 357.015, 59.642 354.905, 59.417 354.178 C 58.848 352.342, 60.787 349, 62.420 349 C 63.163 349, 64.507 347.875, 65.408 346.500 C 67.425 343.422, 66.182 343.282, 62.507 346.173 L 59.744 348.346 60.907 346.173 C 61.665 344.757, 61.710 344, 61.035 344 C 60.466 344, 60 344.477, 60 345.059 C 60 345.641, 59.545 345.837, 58.988 345.493 C 58.420 345.141, 59.730 343.033, 61.977 340.684 C 64.178 338.383, 65.983 336.021, 65.989 335.436 C 65.996 334.766, 63.875 334.505, 60.250 334.730 C 57.087 334.927, 53.943 334.707, 53.262 334.242 C 52.581 333.777, 51.561 330.961, 50.997 327.983 C 49.726 321.283, 48.706 320.155, 46.616 323.138 M 48.701 453.632 C 47.281 455.053, 48.111 457.645, 51.896 463.611 C 61.318 478.461, 74.110 488.476, 91.168 494.356 C 99.310 497.163, 101.531 497.052, 102.569 493.783 C 103.267 491.584, 101.695 490.041, 98.731 490.015 C 94.928 489.982, 82.749 484.932, 76.292 480.710 C 68.013 475.298, 65.092 472.265, 57.994 461.711 C 52.854 454.069, 50.399 451.935, 48.701 453.632" stroke="none" fill="#f9fdfe" fill-rule="evenodd"></path><path d="M 346 245.975 C 312.344 249.024, 282.254 267.600, 251.531 304.295 C 248.050 308.453, 246.230 309.899, 245.090 309.411 C 217.428 297.585, 186.342 291.582, 165.175 293.980 C 153.803 295.268, 142.447 298.818, 134 303.724 C 125.088 308.901, 107.905 326.190, 100.621 337.311 C 90.603 352.603, 75.146 384.529, 69.058 402.500 C 67.395 407.410, 67.175 407.599, 56.905 413 C 41.697 420.998, 36.802 424.388, 30.068 431.586 C 19.808 442.555, 18.453 453.455, 25.466 468.632 C 31.748 482.228, 39.552 491.699, 55.236 504.758 C 78.766 524.349, 98.237 533.174, 124.034 535.939 C 139.364 537.582, 162.527 534.947, 200 527.297 C 239.502 519.232, 235.810 519.429, 243 525.002 C 250.353 530.702, 270.955 543.977, 281.500 549.810 C 303.507 561.983, 323.911 569.767, 346.714 574.690 C 358.522 577.239, 361.145 577.445, 381 577.386 C 400.274 577.329, 403.876 577.043, 415.789 574.618 C 448.100 568.041, 475.559 557.622, 522 534.316 C 536.575 527.002, 549.327 521.014, 550.337 521.009 C 551.347 521.004, 557.422 522.833, 563.837 525.074 C 632.326 548.998, 679.272 553.680, 718.660 540.512 C 737.396 534.249, 752.611 525.068, 772.500 508.027 C 782.906 499.111, 799.187 483.357, 805.500 476.095 C 807.273 474.055, 807.614 471.510, 808.504 453.647 C 810.344 416.731, 806.829 399.081, 795.687 389.298 C 784.551 379.521, 766.228 377.872, 737.547 384.066 C 725.229 386.727, 725.373 386.753, 724.591 381.750 C 724.226 379.413, 722.564 372.565, 720.899 366.534 C 705.282 309.974, 675.140 274.996, 634.517 266.292 C 625.559 264.372, 599.160 264.148, 589 265.905 C 559.135 271.069, 523.613 286.077, 497.321 304.638 C 493.922 307.037, 490.717 309, 490.197 309 C 489.678 309, 486.205 306.188, 482.479 302.750 C 438.213 261.905, 390.280 241.965, 346 245.975 M 345.500 255.590 C 344.400 255.861, 339.900 256.774, 335.500 257.619 C 309.578 262.601, 279.731 283.710, 258.190 312.298 C 254.169 317.634, 250.556 322, 250.160 322 C 249.763 322, 245.724 320.433, 241.184 318.518 C 231.289 314.345, 208.030 307.359, 199.573 306.020 C 171.630 301.597, 157.884 302.946, 140.500 311.819 C 131.612 316.356, 116.810 330.944, 108.776 343.084 C 99.322 357.369, 85.852 385.873, 76.618 411.133 C 75.034 415.464, 74.454 415.975, 67.712 418.964 C 44.565 429.229, 31 441.222, 31 451.423 C 31 471.701, 72.905 511.446, 104.353 520.995 C 116.439 524.665, 122.444 525.296, 139.786 524.715 C 151.951 524.307, 161.127 523.331, 173.500 521.128 C 191.248 517.969, 219.627 512.302, 231.319 509.583 L 238.137 507.997 244.683 512.748 C 257.103 521.765, 260.545 524.092, 273 531.896 C 318.163 560.191, 359.376 570.944, 401.699 565.475 C 437.098 560.901, 480.411 544.788, 533.373 516.490 L 549.246 508.009 558.836 511.600 C 577.390 518.550, 602.393 526.082, 619.670 529.928 C 680.397 543.445, 718.644 536.970, 757.350 506.619 C 765.167 500.489, 794.790 473.031, 796.163 470.643 C 797.646 468.062, 799 452.980, 799 439.038 C 799 412.128, 794.665 398.957, 784.021 393.529 C 780.474 391.720, 771.764 390, 766.149 390 C 760.505 390, 737.705 394.028, 726.699 396.969 C 722.408 398.116, 718.522 398.823, 718.064 398.540 C 717.606 398.256, 716.912 395.882, 716.523 393.262 C 715.274 384.858, 709.392 362.820, 705.511 352 C 697.255 328.980, 687.987 313.828, 673.072 298.962 C 663.960 289.880, 661.188 287.770, 653 283.685 C 627.722 271.072, 599.061 270.716, 563.276 282.571 C 548.223 287.558, 520.815 301.277, 506.145 311.169 C 499.349 315.751, 492.767 320.146, 491.518 320.936 C 489.357 322.302, 488.821 321.982, 480.374 314.287 C 445.586 282.595, 414.539 264.687, 381.981 257.535 C 374.721 255.940, 349.539 254.598, 345.500 255.590" stroke="none" fill="#090609" fill-rule="evenodd"></path><path d="M 502.598 122.841 C 502.277 123.361, 501.398 126.198, 500.646 129.144 L 499.280 134.500 493.140 134.798 C 485.910 135.148, 485.487 136.142, 490.500 141 C 493.831 144.228, 495.167 148, 492.981 148 C 492.420 148, 492.195 149.125, 492.481 150.500 C 492.766 151.875, 493.234 154.125, 493.519 155.500 C 494.112 158.355, 496.589 158.778, 499.559 156.532 C 502.247 154.499, 504.919 154.653, 508.884 157.070 C 513.394 159.820, 514.486 158.563, 514.555 150.537 C 514.607 144.571, 514.855 143.903, 518.534 139.837 L 522.458 135.500 515.752 135.205 L 509.045 134.910 507.239 128.777 C 505.512 122.914, 503.860 120.800, 502.598 122.841 M 273.275 146.176 C 272.675 146.904, 271.345 149.975, 270.320 153 C 267.619 160.970, 267.584 161, 260.941 161 C 254.461 161, 253.381 162.225, 256.984 165.486 C 259.651 167.899, 263.084 173.830, 262.149 174.408 C 261.186 175.003, 260.727 182.565, 261.506 185.018 C 262.060 186.763, 262.421 186.689, 266.746 183.946 C 272.580 180.246, 274.176 180.263, 280.127 184.081 C 282.767 185.776, 285.394 186.874, 285.964 186.522 C 287.221 185.745, 287.267 180.858, 286.067 175.686 C 285.220 172.037, 285.376 171.677, 289.637 167.415 C 292.088 164.965, 293.821 162.519, 293.488 161.980 C 293.154 161.441, 290.321 160.993, 287.191 160.985 C 284.061 160.976, 280.962 160.627, 280.305 160.209 C 279.647 159.791, 278.621 157.269, 278.023 154.604 C 276.473 147.685, 274.670 144.485, 273.275 146.176 M 364.176 189.750 C 363.684 190.713, 362.991 193.032, 362.635 194.905 C 361.722 199.708, 360.307 201, 355.959 201 C 348.989 201, 348.584 201.661, 352.370 206.859 C 355.490 211.142, 355.725 211.982, 355.423 217.750 C 355.105 223.829, 355.164 224, 357.583 224 C 358.951 224, 361.110 223.319, 362.380 222.486 C 364.443 221.135, 365.079 221.135, 368.313 222.486 C 370.306 223.319, 373.030 224, 374.368 224 C 376.730 224, 376.788 223.819, 376.381 217.750 C 375.978 211.764, 376.109 211.332, 379.483 207.508 C 381.420 205.312, 382.857 203.062, 382.675 202.508 C 382.493 201.954, 379.711 201.275, 376.493 201 L 370.641 200.500 369.512 195.464 C 367.817 187.904, 366.073 186.037, 364.176 189.750 M 690.725 190.697 C 690.473 191.139, 689.465 193.975, 688.486 197 C 687.506 200.025, 686.287 202.773, 685.776 203.107 C 685.264 203.440, 682.769 203.325, 680.229 202.850 C 673.437 201.582, 672.728 203.131, 677.801 208.154 C 681.643 211.958, 683.163 215, 681.224 215 C 680.133 215, 680.884 223.035, 682.228 225.755 C 683.339 228.002, 683.349 228.003, 685.199 226.017 C 688.176 222.821, 691.889 222.392, 696.013 224.765 C 698.091 225.961, 700.165 226.516, 700.887 226.070 C 702.490 225.079, 704.095 218.177, 702.896 217.436 C 700.939 216.226, 702.202 212.736, 706.146 208.457 C 708.427 205.983, 709.965 203.631, 709.564 203.231 C 709.163 202.830, 706.200 202.654, 702.980 202.840 L 697.124 203.177 695.278 196.911 C 693.571 191.112, 691.838 188.748, 690.725 190.697 M 119.548 203.296 C 118.146 206.465, 117 209.559, 117 210.173 C 117 210.942, 114.980 211.101, 110.500 210.682 C 102.676 209.952, 102.287 210.837, 107.996 216.375 L 111.991 220.250 111.354 227.102 C 110.579 235.436, 111.960 236.658, 117.434 232.483 L 120.965 229.789 125.539 232.470 C 131.520 235.975, 133.461 234.774, 132.699 228.039 C 132.101 222.747, 133.618 218.536, 137.371 215.076 C 141.763 211.026, 140.880 209.993, 133.610 210.672 L 127.220 211.269 125.619 205.884 C 122.979 197.004, 122.433 196.772, 119.548 203.296 M 564.709 213.662 C 564.419 214.131, 563.865 216.312, 563.479 218.508 C 563.092 220.703, 562.102 223.571, 561.279 224.881 C 559.894 227.084, 559.341 227.216, 553.891 226.646 C 546.557 225.880, 546.314 226.964, 552.515 232.799 C 556.260 236.323, 556.942 237.513, 556.512 239.774 C 554.569 249.980, 554.570 250, 557.250 250 C 558.628 250, 560.315 249.325, 561 248.500 C 562.699 246.453, 565.827 246.618, 570.500 249 C 572.658 250.100, 574.950 251, 575.595 251 C 577.153 251, 577.882 247.958, 576.915 245.484 C 576.489 244.393, 576.109 241.743, 576.070 239.596 C 576.010 236.238, 576.560 235.213, 580 232.268 C 585.802 227.302, 585.315 226.244, 577.287 226.383 L 570.575 226.500 569.365 221.113 C 568.180 215.841, 565.758 211.964, 564.709 213.662 M 208.709 254.697 C 208.449 255.139, 207.942 256.868, 207.584 258.540 C 206.672 262.801, 203.303 268.035, 201.777 267.562 C 201.075 267.345, 198.588 266.899, 196.250 266.572 C 190.993 265.835, 190.650 267.355, 195.122 271.563 C 199.498 275.681, 200.975 279.505, 199.814 283.713 C 197.823 290.921, 201.034 293.938, 206.786 290.267 C 209.065 288.812, 209.298 288.790, 208.241 290.130 C 207.141 291.526, 207.517 291.801, 211.241 292.324 C 213.584 292.652, 217.032 293.234, 218.904 293.616 L 222.308 294.312 221.528 287.406 C 220.368 277.125, 220.623 275.960, 225.007 271.493 C 227.203 269.255, 229 267.101, 229 266.705 C 229 266.310, 225.907 266.274, 222.126 266.625 L 215.252 267.264 213.371 260.963 C 211.630 255.131, 209.859 252.751, 208.709 254.697 M 759.626 297.533 C 759.282 298.430, 758.993 300.589, 758.985 302.332 C 758.960 307.350, 757.677 308.499, 752.073 308.512 C 744.571 308.531, 743.919 309.965, 748.861 315.580 C 752.905 320.174, 753.846 322, 752.169 322 C 750.818 322, 751.381 332.294, 752.756 332.752 C 753.430 332.977, 755.171 332.224, 756.625 331.080 C 759.664 328.690, 762.698 328.429, 765.527 330.314 C 766.612 331.037, 768.623 331.599, 769.996 331.564 C 772.413 331.502, 772.485 331.299, 772.295 325.034 C 772.108 318.875, 772.263 318.403, 775.570 315.097 C 777.479 313.187, 778.884 311.147, 778.691 310.563 C 778.499 309.978, 775.639 309.368, 772.336 309.207 L 766.331 308.913 764.915 302.709 C 763.488 296.453, 760.981 294, 759.626 297.533 M 46.616 323.138 C 45.727 324.407, 45 326.441, 45 327.657 C 45 328.874, 44.537 331.088, 43.971 332.577 C 42.962 335.231, 42.815 335.272, 36.471 334.680 C 32.384 334.298, 30 334.447, 30 335.085 C 30 335.640, 32.022 338.146, 34.494 340.653 C 36.965 343.160, 38.784 345.540, 38.535 345.943 C 37.019 348.397, 36.385 354.916, 37.466 356.937 L 38.656 359.160 41.870 356.456 C 44.507 354.237, 45.730 353.857, 48.685 354.336 C 50.666 354.658, 53.280 355.854, 54.493 356.994 C 57.684 359.991, 58.949 357.894, 58.479 350.387 C 58.106 344.432, 58.178 344.232, 62.049 340.452 C 67.455 335.173, 67.180 334.299, 60.250 334.730 C 57.087 334.927, 53.943 334.707, 53.262 334.242 C 52.581 333.777, 51.561 330.961, 50.997 327.983 C 49.726 321.283, 48.706 320.155, 46.616 323.138 M 231.566 523.107 C 232.032 523.860, 231.491 523.999, 229.875 523.542 C 228.044 523.023, 227.843 523.109, 229 523.919 C 231.202 525.461, 234 525.226, 234 523.500 C 234 522.675, 233.298 522, 232.441 522 C 231.556 522, 231.178 522.478, 231.566 523.107 M 548.050 524.044 C 548.847 524.545, 550.344 524.691, 551.375 524.370 C 552.587 523.992, 553.011 524.173, 552.573 524.881 C 552.145 525.574, 552.482 525.752, 553.491 525.365 C 555.785 524.485, 554.618 523.771, 550.329 523.430 C 547.782 523.228, 547.059 523.423, 548.050 524.044 M 189.157 531.995 C 187.319 532.430, 185.294 533.339, 184.657 534.015 C 183.745 534.984, 183.963 535.007, 185.684 534.122 C 186.886 533.505, 189.023 533, 190.434 533 C 191.845 533, 193 532.550, 193 532 C 193 531.450, 192.887 531.046, 192.750 531.102 C 192.613 531.159, 190.996 531.560, 189.157 531.995 M 114.298 537.394 C 114.472 537.916, 115.489 538.479, 116.557 538.646 C 117.626 538.812, 119.922 539.230, 121.660 539.574 C 123.432 539.926, 125.627 539.699, 126.660 539.058 C 128.140 538.139, 127.620 538.033, 124 538.517 C 121.047 538.911, 119.971 538.794, 120.870 538.176 C 121.853 537.500, 121.073 537.122, 118.111 536.839 C 115.776 536.617, 114.119 536.858, 114.298 537.394 M 700.333 548.648 C 700.333 549.357, 701.046 549.828, 701.917 549.695 C 702.788 549.562, 703.500 549.035, 703.500 548.523 C 703.500 548.011, 702.788 547.540, 701.917 547.475 C 701.046 547.411, 700.333 547.939, 700.333 548.648 M 663 550.781 C 663 552.239, 666.986 553.320, 670.148 552.719 C 671.819 552.402, 671.472 552.233, 668.950 552.136 C 666.997 552.061, 664.860 551.460, 664.200 550.800 C 663.288 549.888, 663 549.884, 663 550.781 M 412.500 578.607 L 408.500 579.948 412.500 579.385 C 416.477 578.825, 417.713 578.335, 416.917 577.633 C 416.688 577.431, 414.700 577.869, 412.500 578.607 M 390.799 580.125 C 388.888 581.305, 391.895 582.127, 394 581 C 395.123 580.399, 396.478 580.178, 397.013 580.508 C 397.547 580.838, 398.701 580.707, 399.577 580.217 C 400.677 579.602, 399.720 579.352, 396.491 579.413 C 393.917 579.461, 391.356 579.781, 390.799 580.125 M 385 580.906 C 385 581.405, 383.988 581.621, 382.750 581.386 C 380.710 580.999, 380.685 581.040, 382.484 581.825 C 384.795 582.833, 388.230 582.181, 387.430 580.886 C 386.714 579.728, 385 579.742, 385 580.906" stroke="none" fill="#ff654f" fill-rule="evenodd"></path><path d="M 514.686 145.250 C 514.093 147.766, 514.534 152.867, 515.422 153.755 C 515.740 154.073, 516 153.874, 516 153.313 C 516 152.751, 517.125 151.078, 518.500 149.595 C 521.147 146.739, 521.692 145, 519.941 145 C 519.359 145, 519.160 145.450, 519.500 146 C 519.840 146.550, 519.697 147, 519.181 147 C 517.825 147, 515.900 144.433, 516.675 143.658 C 517.037 143.296, 516.857 143, 516.275 143 C 515.693 143, 514.978 144.012, 514.686 145.250 M 486.349 145.466 C 486.707 146.400, 487 147.340, 487 147.556 C 487 147.772, 488.338 148.641, 489.973 149.486 C 492.607 150.848, 492.880 150.851, 492.366 149.512 C 492.047 148.680, 492.284 148, 492.893 148 C 494.756 148, 494.121 145.431, 492.250 145.396 C 491.288 145.379, 489.419 145.005, 488.099 144.567 C 486.090 143.900, 485.804 144.047, 486.349 145.466 M 492.068 154.685 C 492.030 155.337, 492.460 157.079, 493.021 158.557 C 493.756 160.489, 493.710 161.645, 492.857 162.672 C 491.928 163.791, 492.009 164.437, 493.229 165.657 C 494.638 167.067, 494.983 167.017, 496.867 165.133 C 500.135 161.865, 503.864 161.377, 508.050 163.670 C 511.723 165.682, 516.875 165.225, 515.505 163.008 C 515.162 162.454, 515.385 162, 516 162 C 516.646 162, 516.787 161.472, 516.334 160.750 C 515.903 160.063, 515.679 158.713, 515.838 157.750 C 516.197 155.564, 515.092 155.492, 513.550 157.601 C 512.490 159.050, 512.055 159.004, 508.940 157.104 C 504.921 154.654, 502.256 154.492, 499.559 156.532 C 496.783 158.631, 494.473 158.347, 493.220 155.750 C 492.624 154.512, 492.105 154.033, 492.068 154.685 M 253.399 170.163 C 252.530 171.569, 258.315 177, 260.682 177 C 261.590 177, 262.037 176.704, 261.675 176.342 C 261.313 175.980, 261.576 174.994, 262.259 174.150 C 263.143 173.057, 263.158 172.821, 262.311 173.329 C 261.658 173.721, 260.758 173.470, 260.311 172.771 C 259.560 171.594, 255.612 169, 254.573 169 C 254.323 169, 253.795 169.523, 253.399 170.163 M 293.589 169.744 C 293.210 170.123, 291.235 170.449, 289.200 170.467 C 286.869 170.488, 285.537 170.963, 285.600 171.750 C 285.655 172.438, 285.767 174.137, 285.850 175.526 C 285.998 178.014, 286.045 178.028, 289.051 176.473 C 290.730 175.606, 292.353 174.244, 292.658 173.448 C 292.964 172.651, 293.841 172, 294.607 172 C 295.373 172, 296 171.577, 296 171.059 C 296 169.762, 294.429 168.905, 293.589 169.744 M 266.759 183.938 L 262.125 186.876 261.064 184.188 L 260.003 181.500 260.360 184.500 C 260.556 186.150, 261.054 188.287, 261.466 189.250 C 262.001 190.501, 261.756 191, 260.607 191 C 258.186 191, 258.689 192.348, 261.616 193.707 C 264.077 194.849, 264.191 194.782, 263.747 192.457 C 263.489 191.106, 263.691 190, 264.198 190 C 264.704 190, 264.827 189.438, 264.472 188.750 C 264.117 188.063, 264.731 188.613, 265.837 189.974 C 267.753 192.332, 267.936 192.368, 269.752 190.724 C 272.228 188.484, 275.533 188.536, 278.846 190.869 C 282.401 193.372, 286 194.448, 286 193.008 C 286 192.389, 286.563 192.200, 287.250 192.588 C 288.234 193.143, 288.241 193.014, 287.285 191.982 C 286.327 190.947, 286.376 190.440, 287.519 189.585 C 288.425 188.907, 288.741 187.648, 288.362 186.227 C 287.805 184.142, 287.651 184.095, 286.505 185.663 C 285.352 187.239, 284.868 187.124, 280.290 184.186 C 274.170 180.259, 272.605 180.230, 266.759 183.938 M 376.327 211.590 C 376.082 212.229, 376.098 215.282, 376.364 218.376 C 376.830 223.812, 376.764 224, 374.391 224 C 373.041 224, 370.306 223.319, 368.313 222.486 C 365.158 221.168, 364.409 221.157, 362.505 222.404 C 361.304 223.192, 359.011 223.986, 357.410 224.168 C 353.721 224.589, 352.581 228.816, 355.921 229.690 C 357.064 229.989, 358 230.701, 358 231.272 C 358 231.843, 358.874 231.519, 359.941 230.553 C 361.511 229.133, 362.852 228.929, 366.941 229.492 C 369.724 229.875, 372 230.500, 372 230.881 C 372 231.262, 372.900 231.642, 374 231.725 C 375.100 231.808, 376 231.406, 376 230.831 C 376 230.256, 376.694 230.052, 377.542 230.378 C 378.803 230.862, 378.976 230.379, 378.489 227.735 C 377.387 221.754, 378.605 213.375, 380.541 213.623 C 382.199 213.835, 384 212.830, 384 211.693 C 384 210.962, 383.603 210.997, 382.800 211.800 C 381.213 213.387, 379.658 213.334, 380.279 211.714 C 380.580 210.931, 379.992 210.429, 378.773 210.429 C 377.673 210.429, 376.572 210.951, 376.327 211.590 M 349.406 213.465 C 351.004 214.859, 352.691 216, 353.156 216 C 353.620 216, 354 217.575, 354 219.500 C 354 221.425, 354.337 222.998, 354.750 222.995 C 355.163 222.993, 355.518 220.405, 355.540 217.243 L 355.579 211.496 351.040 211.213 L 346.500 210.930 349.406 213.465 M 703.500 212 C 703.840 212.550, 703.641 213, 703.059 213 C 702.477 213, 702 213.675, 702 214.500 C 702 215.325, 702.788 216.007, 703.750 216.015 C 704.738 216.024, 705.065 216.350, 704.500 216.765 C 702.908 217.935, 702.865 220, 704.433 220 C 706.375 220, 707.444 216.239, 705.997 214.496 C 705.354 213.721, 705.118 212.618, 705.473 212.044 C 705.828 211.470, 705.390 211, 704.500 211 C 703.610 211, 703.160 211.450, 703.500 212 M 673.621 213.454 C 673.928 214.254, 675.771 215.847, 677.717 216.995 C 681.204 219.053, 681.247 219.054, 680.734 217.089 C 680.447 215.993, 680.727 214.885, 681.356 214.627 C 681.985 214.369, 681.289 214.122, 679.809 214.079 C 678.329 214.036, 676.840 213.550, 676.500 213 C 675.520 211.415, 672.991 211.814, 673.621 213.454 M 135.861 221.033 C 138.645 223.353, 140 223.536, 140 221.594 C 140 220.680, 139.300 220.370, 138 220.710 C 136.882 221.003, 136 220.741, 136 220.117 C 136 219.502, 135.438 219.015, 134.750 219.033 C 134.063 219.052, 134.562 219.952, 135.861 221.033 M 103.944 221.896 C 105.193 224.230, 109.549 226.397, 111.084 225.448 C 112.935 224.304, 111.923 222.235, 109.250 221.695 C 107.737 221.390, 105.660 220.815, 104.634 220.418 C 102.973 219.776, 102.897 219.940, 103.944 221.896 M 132.923 221.528 C 132.881 222.063, 132.705 223.227, 132.532 224.116 C 132.358 225.005, 132.601 226.355, 133.072 227.116 C 133.780 228.262, 134.230 228.198, 135.682 226.746 C 137.355 225.074, 137.333 224.889, 135.218 222.774 C 133.998 221.554, 132.966 220.993, 132.923 221.528 M 680.023 222.703 C 680.010 223.365, 680.516 225.039, 681.147 226.423 C 682.032 228.366, 682.004 229.290, 681.025 230.470 C 680.015 231.687, 680.008 232.305, 680.991 233.489 C 682.611 235.441, 684 234.496, 684 231.441 C 684 228.728, 685.733 228.142, 686.655 230.543 C 687.187 231.930, 687.423 231.927, 688.979 230.519 C 690.877 228.802, 692.887 229.209, 697.180 232.181 C 698.884 233.361, 700.092 233.660, 700.499 233.002 C 700.851 232.433, 701.670 232.277, 702.319 232.656 C 702.969 233.034, 702.600 232.289, 701.500 231 C 700.400 229.711, 700.113 229.016, 700.862 229.456 C 702.637 230.499, 703.974 228.356, 703.954 224.500 C 703.940 221.752, 703.844 221.668, 702.805 223.500 C 700.962 226.749, 699.828 226.961, 696.013 224.765 C 691.876 222.384, 688.175 222.822, 685.170 226.048 C 683.289 228.067, 683.281 228.065, 681.665 224.786 C 680.774 222.979, 680.035 222.041, 680.023 222.703 M 117.220 232.607 C 115.307 234.114, 113.282 234.938, 112.359 234.584 C 111.197 234.138, 110.944 234.412, 111.406 235.615 C 111.752 236.516, 111.503 237.894, 110.853 238.677 C 109.927 239.793, 110.031 240.459, 111.336 241.764 C 112.394 242.823, 113 242.986, 113 242.214 C 113 241.546, 113.468 241, 114.040 241 C 114.613 241, 116.327 240.079, 117.850 238.952 C 120.170 237.237, 121.084 237.081, 123.478 237.992 C 125.051 238.590, 126.836 239.760, 127.445 240.594 C 129.703 243.681, 132.406 240.833, 133.668 234.038 C 134.113 231.641, 134.073 231.624, 132.138 233.375 C 130.217 235.113, 130.005 235.087, 125.738 232.587 C 123.310 231.164, 121.139 230.005, 120.912 230.011 C 120.685 230.017, 119.024 231.185, 117.220 232.607 M 554.461 235.337 C 555.395 236.897, 555.969 238.364, 555.736 238.597 C 555.503 238.831, 553.442 238.362, 551.156 237.555 C 545.877 235.692, 545.831 236.960, 551.052 240.416 C 553.850 242.267, 554.950 243.624, 554.605 244.799 C 554.331 245.734, 553.987 248.711, 553.842 251.413 C 553.622 255.507, 553.904 256.453, 555.539 257.093 C 558.659 258.313, 560 258.117, 560 256.442 C 560 255.174, 561.094 254.942, 565.901 255.192 C 569.147 255.362, 571.615 255.806, 571.385 256.181 C 571.155 256.555, 571.475 257.176, 572.095 257.559 C 572.716 257.942, 573.616 257.636, 574.096 256.878 C 574.729 255.880, 574.974 255.845, 574.985 256.750 C 574.993 257.438, 575.436 258, 575.969 258 C 576.501 258, 576.648 257.247, 576.295 256.326 C 575.808 255.058, 576.058 254.808, 577.326 255.295 C 579.175 256.004, 579.387 254.332, 578 250 C 577.466 248.333, 577.166 248.083, 577.100 249.250 C 576.970 251.522, 575.324 251.459, 570.500 249 C 565.827 246.618, 562.699 246.453, 561 248.500 C 560.315 249.325, 558.628 250, 557.250 250 C 554.573 250, 554.580 250.086, 556.458 240 C 556.756 238.399, 556.176 236.601, 554.843 235 L 552.763 232.500 554.461 235.337 M 576 240.618 C 576 242.478, 576.241 244, 576.535 244 C 577.402 244, 582.435 240.636, 583.235 239.523 C 584.499 237.762, 584.111 237.504, 580 237.368 C 576.096 237.240, 576 237.318, 576 240.618 M 366.768 245.725 C 368.565 245.947, 371.265 245.943, 372.768 245.715 C 374.271 245.486, 372.800 245.304, 369.500 245.310 C 366.200 245.315, 364.971 245.502, 366.768 245.725 M 345.500 255.590 C 344.400 255.861, 339.900 256.774, 335.500 257.619 C 309.578 262.601, 279.731 283.710, 258.190 312.298 C 254.169 317.634, 250.556 322, 250.160 322 C 249.763 322, 245.724 320.433, 241.184 318.518 C 231.289 314.345, 208.030 307.359, 199.573 306.020 C 171.630 301.597, 157.884 302.946, 140.500 311.819 C 131.618 316.353, 116.811 330.942, 108.792 343.060 C 98.253 358.986, 78.289 401.984, 79.712 405.692 C 80.069 406.622, 79.925 407.072, 79.380 406.735 C 78.851 406.408, 77.653 408.298, 76.717 410.933 C 75.105 415.472, 74.632 415.895, 67.758 418.944 C 44.562 429.230, 31 441.214, 31 451.423 C 31 471.701, 72.905 511.446, 104.353 520.995 C 116.439 524.665, 122.444 525.296, 139.786 524.715 C 151.951 524.307, 161.127 523.331, 173.500 521.128 C 191.248 517.969, 219.627 512.302, 231.319 509.583 L 238.137 507.997 244.683 512.748 C 257.103 521.765, 260.545 524.092, 273 531.896 C 318.163 560.191, 359.376 570.944, 401.699 565.475 C 437.098 560.901, 480.411 544.788, 533.373 516.490 L 549.246 508.009 558.836 511.600 C 577.390 518.550, 602.393 526.082, 619.670 529.928 C 680.397 543.445, 718.644 536.970, 757.350 506.619 C 765.167 500.489, 794.790 473.031, 796.163 470.643 C 797.646 468.062, 799 452.980, 799 439.038 C 799 412.128, 794.665 398.957, 784.021 393.529 C 780.474 391.720, 771.764 390, 766.149 390 C 760.530 390, 737.719 394.024, 726.820 396.938 C 722.596 398.067, 718.546 398.759, 717.820 398.476 C 717.065 398.182, 716.415 396.150, 716.302 393.731 C 716.025 387.808, 710.006 364.530, 705.511 352 C 697.255 328.980, 687.987 313.828, 673.072 298.962 C 663.960 289.880, 661.188 287.770, 653 283.685 C 647.549 280.964, 639.290 277.891, 633.622 276.472 C 602.391 268.656, 558.954 279.169, 515.636 305.025 C 502.943 312.602, 490.771 321.437, 491.719 322.386 C 492.115 322.782, 491.553 322.773, 490.470 322.367 C 489.386 321.961, 484.675 318.158, 480 313.916 C 445.328 282.453, 414.381 264.653, 381.981 257.535 C 374.721 255.940, 349.539 254.598, 345.500 255.590 M 191.232 277.267 C 191.445 277.945, 193.077 279.242, 194.860 280.148 C 196.642 281.055, 198.078 282.067, 198.050 282.398 C 197.885 284.384, 198.109 285, 199 285 C 199.550 285, 200 283.200, 200 281 C 200 278.800, 199.523 277, 198.941 277 C 198.359 277, 198.152 277.436, 198.481 277.970 C 198.811 278.503, 197.228 278.286, 194.963 277.487 C 191.874 276.397, 190.941 276.342, 191.232 277.267 M 220.758 278.227 C 220.557 278.828, 220.582 280.607, 220.813 282.180 L 221.233 285.040 223.753 282.520 C 225.139 281.134, 226.613 280, 227.029 280 C 227.446 280, 228.045 279.325, 228.362 278.500 C 228.712 277.586, 228.363 277, 227.469 277 C 226.661 277, 226 277.623, 226 278.383 C 226 279.144, 225.059 280.013, 223.908 280.314 C 221.986 280.816, 221.942 280.721, 223.373 279.141 C 224.793 277.572, 224.762 277.408, 223.026 277.277 C 221.979 277.198, 220.958 277.625, 220.758 278.227 M 260.462 293.250 L 255.500 298.500 260.750 293.538 C 265.628 288.926, 266.459 288, 265.712 288 C 265.554 288, 263.192 290.363, 260.462 293.250 M 201 292.181 C 201 292.631, 201.787 293.020, 202.750 293.044 C 206.440 293.137, 218.575 294.818, 220.121 295.451 C 221.142 295.869, 221.970 295.520, 222.360 294.506 C 222.723 293.558, 222.565 293.151, 221.974 293.516 C 221.423 293.857, 218.554 293.634, 215.599 293.020 C 208.641 291.576, 201 291.137, 201 292.181 M 115.971 317.750 L 109.500 324.500 116.250 318.029 C 119.963 314.470, 123 311.432, 123 311.279 C 123 310.543, 121.982 311.480, 115.971 317.750 M 629.667 315.667 C 629.300 316.033, 629 317.126, 629 318.095 C 629 319.858, 632.141 321.322, 644.794 325.459 C 652.100 327.848, 658.617 331.649, 660.860 334.829 C 663.751 338.929, 667.297 346.573, 671.015 356.718 C 674.397 365.950, 676.273 368.194, 678.598 365.787 C 679.591 364.758, 679.377 363.296, 677.531 358.500 C 676.260 355.200, 673.761 348.675, 671.978 344 C 666.687 330.132, 661.486 325.185, 646.500 319.766 C 633.290 314.989, 630.921 314.413, 629.667 315.667 M 772.233 324.081 C 772.301 328.378, 772.602 329.676, 773.257 328.506 C 773.766 327.595, 773.916 326.583, 773.589 326.256 C 773.263 325.930, 773.712 324.871, 774.588 323.903 C 776.394 321.907, 775.674 318, 773.501 318 C 772.487 318, 772.161 319.563, 772.233 324.081 M 744 319.542 C 744 320.513, 747.444 323.700, 749.845 324.950 C 752.041 326.094, 752.142 326.024, 751.449 323.840 C 751.042 322.557, 749.987 320.958, 749.104 320.286 C 747.483 319.050, 744 318.543, 744 319.542 M 750.667 328.667 C 750.300 329.033, 750 330.881, 750 332.774 C 750 335.421, 750.346 336.081, 751.500 335.638 C 752.536 335.241, 753 335.704, 753 337.138 C 753 338.573, 752.536 339.036, 751.500 338.638 C 750.675 338.322, 750 338.499, 750 339.031 C 750 339.564, 750.413 340, 750.918 340 C 751.423 340, 752.489 340.250, 753.287 340.557 C 754.205 340.909, 754.944 340.322, 755.301 338.956 C 755.612 337.769, 756.315 337.076, 756.864 337.416 C 757.413 337.755, 758.103 337.642, 758.398 337.165 C 758.879 336.386, 760.340 336.327, 766.309 336.843 C 767.304 336.930, 767.854 337.427, 767.531 337.950 C 767.208 338.472, 767.827 339.372, 768.906 339.950 C 771.743 341.468, 772.302 341.261, 771.690 338.921 C 771.297 337.421, 771.535 336.991, 772.541 337.377 C 774.552 338.149, 775.194 336.519, 773.952 333.795 C 773.182 332.104, 772.120 331.477, 770.190 331.575 C 768.710 331.649, 766.612 331.100, 765.527 330.355 C 762.717 328.424, 759.681 328.676, 756.605 331.096 C 753.439 333.586, 750.557 332.970, 751.498 330.005 C 752.149 327.955, 751.853 327.480, 750.667 328.667 M 59.721 344.715 C 60.078 345.647, 59.925 346.072, 59.358 345.721 C 58.779 345.364, 58.348 346.835, 58.306 349.307 C 58.238 353.362, 58.285 353.426, 59.740 351.250 C 60.567 350.012, 61.812 349, 62.507 349 C 63.202 349, 64.507 347.875, 65.408 346.500 C 67.425 343.422, 66.182 343.282, 62.507 346.173 C 59.797 348.305, 59.765 348.307, 60.854 346.273 C 61.724 344.647, 61.655 344.082, 60.533 343.651 C 59.534 343.268, 59.289 343.589, 59.721 344.715 M 29.007 344.750 C 29.019 346.084, 35.859 350.205, 36.946 349.533 C 38.619 348.499, 38.225 345.700, 36.500 346.362 C 35.675 346.678, 35 346.453, 35 345.862 C 35 345.270, 34.339 345.040, 33.532 345.349 C 32.725 345.659, 31.798 345.482, 31.473 344.956 C 30.773 343.824, 28.997 343.675, 29.007 344.750 M 41.585 356.564 L 38.671 359.187 37.371 356.844 C 36.149 354.642, 36.071 354.772, 36.067 359 C 36.065 361.506, 36.741 364.386, 37.594 365.500 C 39.115 367.489, 39.132 367.489, 40.584 365.529 C 41.387 364.444, 41.823 362.982, 41.553 362.279 C 40.974 360.768, 42.601 360.545, 43.507 362.011 C 43.850 362.567, 45.339 362.985, 46.816 362.939 C 49.918 362.843, 52.019 363.255, 53.660 364.281 C 55.343 365.334, 57.962 364.065, 57.358 362.490 C 56.985 361.518, 57.464 361.309, 59.090 361.734 C 60.924 362.213, 61.214 362.001, 60.669 360.579 C 60.301 359.621, 59.964 357.636, 59.921 356.168 C 59.875 354.614, 59.610 354.126, 59.287 355 C 57.925 358.677, 56.778 359.140, 54.448 356.951 C 53.210 355.788, 50.465 354.634, 48.348 354.388 C 45.228 354.025, 43.948 354.437, 41.585 356.564 M 810 433.122 C 810 438.607, 807.919 470.410, 807.399 472.878 C 807.123 474.186, 804.333 477.956, 801.199 481.257 C 794.697 488.105, 771.768 509.415, 767.406 512.665 C 765.808 513.855, 763.375 515.820, 762 517.030 C 760.625 518.240, 758.491 519.903, 757.259 520.725 C 756.026 521.546, 755.308 522.689, 755.663 523.264 C 756.027 523.853, 755.830 524.013, 755.211 523.631 C 754.608 523.257, 751.717 524.485, 748.788 526.359 C 720.412 544.511, 688.902 550.851, 649 546.437 C 627.429 544.051, 598.897 537.181, 572 527.897 C 549.234 520.039, 549.430 520.065, 542.414 523.929 C 539.161 525.721, 530.313 530.349, 522.750 534.214 C 515.128 538.110, 509 541.857, 509 542.621 C 509 543.379, 508.523 544, 507.941 544 C 507.359 544, 507.160 543.550, 507.500 543 C 508.400 541.544, 507.704 541.732, 502.332 544.397 C 496.787 547.147, 471.870 557.812, 464.635 560.531 C 460.219 562.191, 459.937 562.481, 461.577 563.680 C 462.570 564.406, 462.936 565, 462.391 565 C 461.846 565, 460.914 564.514, 460.319 563.919 C 459.545 563.145, 455.454 564.029, 445.894 567.033 C 423.794 573.980, 407.246 576.966, 387 577.663 C 375.269 578.066, 366.533 577.852, 360.500 577.014 C 355.550 576.326, 350.036 575.581, 348.247 575.358 C 343.643 574.784, 322.108 568.493, 314.172 565.404 C 293.526 557.369, 264.632 540.914, 240.709 523.568 C 238.074 521.657, 235.374 520.269, 234.709 520.482 C 234.044 520.696, 230.236 521.391, 226.247 522.026 C 221.606 522.766, 219.231 523.565, 219.652 524.245 C 220.035 524.866, 219.836 525.016, 219.173 524.607 C 218.548 524.221, 211.391 525.247, 203.269 526.886 C 184.515 530.672, 167.324 533.681, 159 534.634 C 155.425 535.043, 152.275 535.431, 152 535.496 C 151.725 535.560, 146.775 535.961, 141 536.385 C 129.200 537.253, 113.687 535.492, 101.500 531.901 C 84.372 526.855, 61.610 512.131, 43.417 494.329 C 31.242 482.416, 21.205 463.760, 20.912 452.500 L 20.782 447.500 19.621 453.500 C 17.319 465.391, 21.297 477.676, 31.694 490.790 C 34.337 494.124, 37.734 498.432, 39.243 500.364 C 42.673 504.756, 59.780 518.826, 70.896 526.399 C 90.494 539.750, 105.690 544.873, 127.500 545.481 C 146.874 546.021, 165.636 543.598, 209.500 534.893 C 220.500 532.710, 230.912 530.870, 232.637 530.804 C 236.192 530.668, 237.151 531.206, 254.743 543.192 C 289.171 566.650, 317.928 579.225, 350.500 585.066 C 360.993 586.948, 364.949 587.153, 382 586.703 C 409.499 585.977, 427.479 582.609, 455.502 572.935 C 475.198 566.135, 500.487 555.096, 526.866 541.783 C 538.617 535.852, 549.142 531, 550.256 531 C 551.369 531, 558.180 533.053, 565.390 535.562 C 597.245 546.647, 620.740 552.300, 650.832 556.121 C 670.536 558.624, 699.328 555.995, 719.500 549.853 C 726.106 547.842, 748.819 536.849, 749.968 535.106 C 750.261 534.662, 751.625 533.711, 753 532.993 C 761.863 528.361, 804.435 489.913, 807.735 483.560 C 808.812 481.486, 809.403 477.277, 809.569 470.500 C 809.704 465, 810.128 453.637, 810.512 445.250 C 810.896 436.863, 810.938 430, 810.605 430 C 810.272 430, 810 431.405, 810 433.122 M 48.701 453.632 C 47.281 455.053, 48.111 457.645, 51.896 463.611 C 61.318 478.461, 74.110 488.476, 91.168 494.356 C 99.310 497.163, 101.531 497.052, 102.569 493.783 C 103.267 491.584, 101.695 490.041, 98.731 490.015 C 94.928 489.982, 82.749 484.932, 76.292 480.710 C 68.013 475.298, 65.092 472.265, 57.994 461.711 C 52.854 454.069, 50.399 451.935, 48.701 453.632 M 231.566 523.107 C 232.032 523.860, 231.491 523.999, 229.875 523.542 C 228.044 523.023, 227.843 523.109, 229 523.919 C 231.202 525.461, 234 525.226, 234 523.500 C 234 522.675, 233.298 522, 232.441 522 C 231.556 522, 231.178 522.478, 231.566 523.107 M 548.050 524.044 C 548.847 524.545, 550.344 524.691, 551.375 524.370 C 552.587 523.992, 553.011 524.173, 552.573 524.881 C 552.145 525.574, 552.482 525.752, 553.491 525.365 C 555.785 524.485, 554.618 523.771, 550.329 523.430 C 547.782 523.228, 547.059 523.423, 548.050 524.044 M 189.157 531.995 C 187.319 532.430, 185.294 533.339, 184.657 534.015 C 183.745 534.984, 183.963 535.007, 185.684 534.122 C 186.886 533.505, 189.023 533, 190.434 533 C 191.845 533, 193 532.550, 193 532 C 193 531.450, 192.887 531.046, 192.750 531.102 C 192.613 531.159, 190.996 531.560, 189.157 531.995 M 114.298 537.394 C 114.472 537.916, 115.489 538.479, 116.557 538.646 C 117.626 538.812, 119.922 539.230, 121.660 539.574 C 123.432 539.926, 125.627 539.699, 126.660 539.058 C 128.140 538.139, 127.620 538.033, 124 538.517 C 121.047 538.911, 119.971 538.794, 120.870 538.176 C 121.853 537.500, 121.073 537.122, 118.111 536.839 C 115.776 536.617, 114.119 536.858, 114.298 537.394 M 700.333 548.648 C 700.333 549.357, 701.046 549.828, 701.917 549.695 C 702.788 549.562, 703.500 549.035, 703.500 548.523 C 703.500 548.011, 702.788 547.540, 701.917 547.475 C 701.046 547.411, 700.333 547.939, 700.333 548.648 M 663 550.781 C 663 552.239, 666.986 553.320, 670.148 552.719 C 671.819 552.402, 671.472 552.233, 668.950 552.136 C 666.997 552.061, 664.860 551.460, 664.200 550.800 C 663.288 549.888, 663 549.884, 663 550.781 M 412.500 578.607 L 408.500 579.948 412.500 579.385 C 416.477 578.825, 417.713 578.335, 416.917 577.633 C 416.688 577.431, 414.700 577.869, 412.500 578.607 M 390.799 580.125 C 388.888 581.305, 391.895 582.127, 394 581 C 395.123 580.399, 396.478 580.178, 397.013 580.508 C 397.547 580.838, 398.701 580.707, 399.577 580.217 C 400.677 579.602, 399.720 579.352, 396.491 579.413 C 393.917 579.461, 391.356 579.781, 390.799 580.125 M 385 580.906 C 385 581.405, 383.988 581.621, 382.750 581.386 C 380.710 580.999, 380.685 581.040, 382.484 581.825 C 384.795 582.833, 388.230 582.181, 387.430 580.886 C 386.714 579.728, 385 579.742, 385 580.906" stroke="none" fill="#82c3f9" fill-rule="evenodd"></path></svg><style>@media (prefers-color-scheme: light) { :root { filter: none; } }
</style></svg>